# xmcd
#
# Track frame offsets:
#	150
#	19704
#	34946
#	62170
#	75249
#	90628
#	106076
#	146137
#	157204
#	183041
#	203963
#	222714
#	240266
#	272921
#	284562
#
# Disc length: 4002 seconds
#
# Revision: 1
# Processed by: cddbd v1.5.2PL0 Copyright (c) Steve Scherf et al.
# Submitted via: audiograbber 1.83.01
#
DISCID=d70fa00f
DTITLE=Grateful Dead - 80-10-04 Warfield Theatre, San Francisco CA
DYEAR=1900
DGENRE=
TTITLE0=Deep Elem Blues
TTITLE1=The Race Is On
TTITLE2=It Must Have Been The Roses
TTITLE3=Monkey and The Engineer
TTITLE4=Rosalie McFall
TTITLE5=Dark Hollow
TTITLE6=To Lay Me Down
TTITLE7=On The Road Again
TTITLE8=It Ain't No Lie
TTITLE9=Ripple
TTITLE10=Alabama Getaway
TTITLE11=Greatest Story Ever Told
TTITLE12=Candyman
TTITLE13=Mama Tried
TTITLE14=Mexicali Blues
EXTD=
EXTT0=
EXTT1=
EXTT2=
EXTT3=
EXTT4=
EXTT5=
EXTT6=
EXTT7=
EXTT8=
EXTT9=
EXTT10=
EXTT11=
EXTT12=
EXTT13=
EXTT14=
PLAYORDER=
